<?xml version="1.0" encoding="utf-8"?>
<!-- Generator: Adobe Illustrator 23.0.3, SVG Export Plug-In . SVG Version: 6.00 Build 0)  -->
<svg version="1.1" id="Слой_1" xmlns="http://www.w3.org/2000/svg" xmlns:xlink="http://www.w3.org/1999/xlink" x="0px" y="0px"
	 viewBox="0 0 449 91.4" style="enable-background:new 0 0 449 91.4;" xml:space="preserve">
<style type="text/css">
	.st0{fill:#C70112;}
	.st1{fill:#FFFFFF;}
	.st2{fill:#E8E8E8;}
</style>
<g>
	<polygon class="st0" points="249.6,9.7 102.1,9.7 102.1,82.1 269,82.1 269,29.2 	"/>
	<g>
		<path class="st1" d="M150.2,18.4h-35.4c-0.5,0-1,0.3-1.2,0.7l-4.5,8c-0.2,0.4-0.2,1,0,1.4s0.7,0.7,1.2,0.7h14.2v39.7
			c0,0.8,0.6,1.4,1.4,1.4h8.7c0.8,0,1.4-0.6,1.4-1.4V29.1h14.2c0.8,0,1.4-0.6,1.4-1.4v-8C151.6,19,151,18.4,150.2,18.4z"/>
		<path class="st1" d="M180.9,31.2c-0.1-0.4-0.5-0.7-0.9-0.8c-1.6-0.5-3.3-0.7-5.2-0.7c-4.8-0.2-8.8,1.7-11.7,5.3v-3.2
			c0-0.8-0.6-1.4-1.4-1.4h-8.5c-0.8,0-1.4,0.6-1.4,1.4v37c0,0.8,0.6,1.4,1.4,1.4h8.5c0.8,0,1.4-0.6,1.4-1.4v-14
			c0-8.4,4.1-13.3,11.2-13.3h0.5c0.5,0,1-0.3,1.2-0.7c0-0.1,2.9-5.3,4.7-8.3C181,32.1,181.1,31.6,180.9,31.2z"/>
		<path class="st1" d="M197.1,29.7c-11.1,0-19.5,8.9-19.5,20.7c0,12,8.6,20.7,20.4,20.7c6.6,0,12.1-2.5,16.2-7.4
			c0.5-0.6,0.4-1.4-0.1-1.9l-5-4.4c-0.5-0.5-1.4-0.5-1.9,0c-2.9,2.9-5.6,4-9.1,4c-4.5,0-7.7-2.4-8.9-6.6h25.5c0.7,0,1.3-0.5,1.4-1.1
			c0.1-0.6,0.2-2.1,0.2-2.6C216.2,40.4,210.3,29.7,197.1,29.7z M189.1,46.4c1.1-4.3,4.1-7,7.9-7c4,0,6.9,2.6,7.8,7H189.1z"/>
		<path class="st1" d="M241.2,29.7c-11.9,0-21.2,9.1-21.2,20.7s9.2,20.7,21,20.7c11.9,0,21.2-9.1,21.2-20.7
			C262.3,38.8,253,29.7,241.2,29.7z M241.2,61c-5.6,0-9.9-4.6-9.9-10.5c0-6.2,4-10.5,9.8-10.5c5.7,0,10,4.5,10,10.5
			C251,56.5,246.9,61,241.2,61z"/>
	</g>
	<g>
		<path class="st2" d="M323.9,56.1c-0.5-0.5-1.4-0.5-1.9,0c-2.4,2.2-4.7,3.9-6.9,5c-2.1,1-4.6,1.6-7.4,1.6c-4.6,0-8.4-1.7-11.5-5.1
			c-3.1-3.4-4.6-7.5-4.6-12.5c0-3.2,0.7-6.2,2.1-8.9c1.4-2.6,3.3-4.8,5.8-6.3c2.4-1.5,5.2-2.3,8.3-2.3c2.6,0,5.1,0.5,7.2,1.6
			c2.2,1.1,4.5,2.6,6.7,4.7c0.3,0.3,0.6,0.4,1,0.4s0.7-0.2,1-0.5l6-6.9c0.5-0.6,0.4-1.4-0.1-1.9c-2.9-2.7-6.1-4.9-9.4-6.4
			c-3.4-1.5-7.5-2.2-12.2-2.2c-4.1,0-8,0.8-11.5,2.3c-3.6,1.5-6.7,3.6-9.1,6.2c-2.5,2.6-4.5,5.7-5.9,9.2s-2.1,7.3-2.1,11.2
			c0,5.3,1.2,10.2,3.7,14.6c2.4,4.4,5.9,7.9,10.2,10.4c4.3,2.5,9.2,3.8,14.5,3.8c3.3,0,6.4-0.4,9.2-1.2c2.8-0.8,5.2-1.9,7.2-3.3
			c2-1.3,4-3.1,6.1-5.2c0.5-0.5,0.5-1.4,0-1.9L323.9,56.1z"/>
		<path class="st2" d="M369.2,52.2c3.3-1.2,6.1-3.1,8.1-5.6c2.5-2.9,3.7-6.7,3.7-11.2c0-5.5-1.9-10-5.7-13.3
			c-3.7-3.3-8.9-4.9-15.4-4.9h-23.7c-0.8,0-1.4,0.6-1.4,1.4v53c0,0.8,0.6,1.4,1.4,1.4h9.3c0.8,0,1.4-0.6,1.4-1.4V54.5h9.4L369,72.4
			c0.3,0.4,0.7,0.6,1.1,0.6h11c0.5,0,1-0.3,1.2-0.7c0.2-0.5,0.2-1-0.1-1.4L369.2,52.2z M366.4,41.3c-1.7,1.4-4.1,2.1-7.1,2.1H347
			v-15h12.2c3.1,0,5.6,0.7,7.2,2s2.4,3,2.4,5.4C368.8,38.2,368,40,366.4,41.3z"/>
		<path class="st2" d="M440.8,17.2h-9.9c-0.5,0-0.9,0.2-1.2,0.6l-15,23.3l-15-23.3c-0.3-0.4-0.7-0.6-1.2-0.6h-9.9
			c-0.8,0-1.4,0.6-1.4,1.4v53c0,0.8,0.6,1.4,1.4,1.4h9.2c0.8,0,1.4-0.6,1.4-1.4V38.2l14.1,21.1c0.3,0.4,0.7,0.6,1.1,0.6h0.3
			c0.5,0,0.9-0.2,1.1-0.6L430,38.1v33.5c0,0.8,0.6,1.4,1.4,1.4h9.3c0.8,0,1.4-0.6,1.4-1.4v-53C442.2,17.8,441.6,17.2,440.8,17.2z"/>
	</g>
	<g>
		<g>
			<polygon class="st2" points="39.7,63.1 39.7,63.1 39.7,63.1 39.7,63.1 23.8,72.9 23.9,73 37.8,81.7 39.7,82.8 39.7,82.8 
				41.5,81.7 55.4,73 55.5,72.9 			"/>
		</g>
		<g>
			<polygon class="st2" points="39.7,8.2 39.7,8.2 39.7,8.2 39.7,8.2 24.6,17.6 24.7,17.6 37.9,25.9 39.7,27 39.7,27 41.4,25.9 
				54.6,17.6 54.7,17.6 			"/>
		</g>
		<g>
			<polygon class="st2" points="22.4,19.1 22.4,19.1 22.4,19.1 22.4,19.1 6.7,28.8 20.6,37.5 22.4,38.6 22.4,38.6 24.2,37.5 
				38,28.9 38.1,28.8 			"/>
		</g>
		<polygon class="st2" points="6.7,31.5 6.7,62.6 20.9,71.5 20.9,40.4 		"/>
		<g>
			<polygon class="st2" points="57,19.1 57,19.1 57,19.1 57,19.1 41.3,28.8 55.2,37.5 57,38.6 57,38.6 58.9,37.5 72.6,28.9 
				72.7,28.8 			"/>
		</g>
		<g>
			<polygon class="st2" points="41.3,31.5 41.3,61 55.6,69.9 55.6,40.3 			"/>
			<polygon class="st2" points="38.1,31.5 38.1,61 23.8,69.9 23.8,40.3 			"/>
		</g>
		<polygon class="st2" points="72.7,31.5 72.7,62.6 58.5,71.5 58.5,40.4 		"/>
	</g>
</g>
</svg>
